umbra-11.ufo
<glyph name="percent" format="1">
  <advance width="641"/>
  <unicode hex="0025"/>
  <outline>
    <contour>
      <point x="-37" y="212" type="line"/>
      <point x="273" y="712" type="line"/>
      <point x="403" y="712" type="line"/>
      <point x="93" y="212" type="line"/>
    </contour>
    <contour>
      <point x="13" y="520" type="line"/>
      <point x="-92" y="625" type="line"/>
      <point x="13" y="731" type="line"/>
      <point x="119" y="625" type="line"/>
    </contour>
    <contour>
      <point x="353" y="184" type="line"/>
      <point x="248" y="289" type="line"/>
      <point x="353" y="395" type="line"/>
      <point x="459" y="289" type="line"/>
    </contour>
  </outline>
</glyph>
<glyph name="parenright" format="1">
  <advance width="232"/>
  <unicode hex="0029"/>
  <outline>
    <contour>
      <point x="-47" y="763" type="line"/>
      <point x="28" y="678"/>
      <point x="65" y="573"/>
      <point x="65" y="468" type="curve" smooth="yes"/>
      <point x="65" y="363"/>
      <point x="28" y="258"/>
      <point x="-47" y="173" type="curve"/>
      <point x="-137" y="173" type="line"/>
      <point x="-87" y="248"/>
      <point x="-63" y="358"/>
      <point x="-63" y="468" type="curve" smooth="yes"/>
      <point x="-63" y="578"/>
      <point x="-87" y="688"/>
      <point x="-137" y="763" type="curve"/>
    </contour>
  </outline>
</glyph>
<glyph name="asterisk" format="1">
  <advance width="459"/>
  <unicode hex="002A"/>
  <outline>
    <contour>
      <point x="55" y="529" type="line"/>
      <point x="28" y="672" type="line"/>
      <point x="158" y="672" type="line"/>
      <point x="130" y="529" type="line"/>
      <point x="242" y="623" type="line"/>
      <point x="307" y="511" type="line"/>
      <point x="168" y="462" type="line"/>
      <point x="307" y="413" type="line"/>
      <point x="242" y="301" type="line"/>
      <point x="130" y="395" type="line"/>
      <point x="158" y="252" type="line"/>
      <point x="28" y="252" type="line"/>
      <point x="55" y="395" type="line"/>
      <point x="-57" y="301" type="line"/>
      <point x="-122" y="413" type="line"/>
      <point x="17" y="462" type="line"/>
      <point x="-122" y="511" type="line"/>
      <point x="-57" y="623" type="line"/>
    </contour>
  </outline>
</glyph>
<glyph name="period" format="1">
  <advance width="291"/>
  <unicode hex="002E"/>
  <outline>
    <contour>
      <point x="8" y="184" type="line"/>
      <point x="-97" y="289" type="line"/>
      <point x="8" y="395" type="line"/>
      <point x="114" y="289" type="line"/>
    </contour>
  </outline>
</glyph>
<glyph name="four" format="1">
  <advance width="490"/>
  <unicode hex="0034"/>
  <outline>
    <contour>
      <point x="118" y="307" type="line"/>
      <point x="41" y="307"/>
      <point x="-35" y="307"/>
      <point x="-112" y="307" type="curve"/>
      <point x="-132" y="377" type="line"/>
      <point x="158" y="712" type="line"/>
      <point x="258" y="712" type="line"/>
      <point x="258" y="612"/>
      <point x="258" y="512"/>
      <point x="258" y="412" type="curve"/>
      <point x="328" y="412" type="line"/>
      <point x="328" y="307" type="line"/>
      <point x="258" y="307" type="line"/>
      <point x="258" y="212" type="line"/>
      <point x="118" y="212" type="line"/>
    </contour>
    <contour>
      <point x="129" y="412" type="line"/>
      <point x="129" y="544" type="line"/>
      <point x="15" y="412" type="line"/>
    </contour>
  </outline>
</glyph>
<glyph name="five" format="1">
  <advance width="449"/>
  <unicode hex="0035"/>
  <outline>
    <contour>
      <point x="-72" y="451" type="line"/>
      <point x="-42" y="712" type="line"/>
      <point x="258" y="712" type="line"/>
      <point x="248" y="597" type="line"/>
      <point x="65" y="597" type="line"/>
      <point x="59" y="546" type="line"/>
      <point x="174" y="545"/>
      <point x="277" y="490"/>
      <point x="277" y="364" type="curve" smooth="yes"/>
      <point x="277" y="237"/>
      <point x="162" y="197"/>
      <point x="75" y="197" type="curve" smooth="yes"/>
      <point x="-2" y="197"/>
      <point x="-72" y="232"/>
      <point x="-112" y="269" type="curve"/>
      <point x="-92" y="394" type="line"/>
      <point x="-52" y="356"/>
      <point x="-3" y="322"/>
      <point x="55" y="322" type="curve" smooth="yes"/>
      <point x="103" y="322"/>
      <point x="132" y="341"/>
      <point x="132" y="392" type="curve" smooth="yes"/>
      <point x="132" y="450"/>
      <point x="53" y="451"/>
      <point x="5" y="451" type="curve" smooth="yes"/>
    </contour>
  </outline>
</glyph>
<glyph name="six" format="1">
  <advance width="474"/>
  <unicode hex="0036"/>
  <outline>
    <contour>
      <point x="38" y="374" type="curve" smooth="yes"/>
      <point x="38" y="346"/>
      <point x="57" y="317"/>
      <point x="105" y="317" type="curve" smooth="yes"/>
      <point x="153" y="317"/>
      <point x="172" y="346"/>
      <point x="172" y="374" type="curve" smooth="yes"/>
      <point x="172" y="402"/>
      <point x="153" y="431"/>
      <point x="105" y="431" type="curve" smooth="yes"/>
      <point x="57" y="431"/>
      <point x="38" y="402"/>
    </contour>
    <contour>
      <point x="302" y="374" type="curve" smooth="yes"/>
      <point x="302" y="267"/>
      <point x="227" y="202"/>
      <point x="110" y="202" type="curve" smooth="yes"/>
      <point x="-47" y="202"/>
      <point x="-102" y="327"/>
      <point x="-102" y="444" type="curve" smooth="yes"/>
      <point x="-102" y="571"/>
      <point x="-26" y="722"/>
      <point x="111" y="722" type="curve" smooth="yes"/>
      <point x="188" y="722"/>
      <point x="258" y="687"/>
      <point x="298" y="640" type="curve"/>
      <point x="257" y="534" type="line"/>
      <point x="217" y="572"/>
      <point x="180" y="602"/>
      <point x="132" y="602" type="curve" smooth="yes"/>
      <point x="64" y="602"/>
      <point x="35" y="543"/>
      <point x="29" y="475" type="curve"/>
      <point x="59" y="512"/>
      <point x="105" y="526"/>
      <point x="140" y="526" type="curve" smooth="yes"/>
      <point x="207" y="526"/>
      <point x="302" y="481"/>
    </contour>
  </outline>
</glyph>
<glyph name="seven" format="1">
  <advance width="455"/>
  <unicode hex="0037"/>
  <outline>
    <contour>
      <point x="298" y="712" type="line"/>
      <point x="297" y="572"/>
      <point x="120" y="519"/>
      <point x="120" y="209" type="curve"/>
      <point x="-15" y="211" type="line"/>
      <point x="-15" y="430"/>
      <point x="72" y="510"/>
      <point x="131" y="592" type="curve"/>
      <point x="-112" y="592" type="line"/>
      <point x="-112" y="712" type="line"/>
    </contour>
  </outline>
</glyph>
<glyph name="colon" format="1">
  <advance width="291"/>
  <unicode hex="003A"/>
  <outline>
    <contour>
      <point x="8" y="469" type="line"/>
      <point x="-97" y="574" type="line"/>
      <point x="8" y="680" type="line"/>
      <point x="114" y="574" type="line"/>
    </contour>
    <contour>
      <point x="8" y="184" type="line"/>
      <point x="-97" y="289" type="line"/>
      <point x="8" y="395" type="line"/>
      <point x="114" y="289" type="line"/>
    </contour>
  </outline>
</glyph>
<glyph name="semicolon" format="1">
  <advance width="291"/>
  <unicode hex="003B"/>
  <outline>
    <contour>
      <point x="-52" y="92" type="line"/>
      <point x="-52" y="352" type="line"/>
      <point x="78" y="352" type="line"/>
      <point x="78" y="212" type="line"/>
    </contour>
    <contour>
      <point x="8" y="469" type="line"/>
      <point x="-97" y="574" type="line"/>
      <point x="8" y="680" type="line"/>
      <point x="114" y="574" type="line"/>
    </contour>
  </outline>
</glyph>
<glyph name="equal" format="1">
  <advance width="560"/>
  <unicode hex="003D"/>
  <outline>
    <contour>
      <point x="-52" y="322" type="line"/>
      <point x="-52" y="432" type="line"/>
      <point x="338" y="432" type="line"/>
      <point x="338" y="322" type="line"/>
    </contour>
    <contour>
      <point x="-52" y="502" type="line"/>
      <point x="-52" y="612" type="line"/>
      <point x="338" y="612" type="line"/>
      <point x="338" y="502" type="line"/>
    </contour>
  </outline>
</glyph>
<glyph name="A" format="1">
  <advance width="580"/>
  <unicode hex="0041"/>
  <outline>
    <contour>
      <point x="-127" y="212" type="line"/>
      <point x="73" y="712" type="line"/>
      <point x="233" y="712" type="line"/>
      <point x="433" y="212" type="line"/>
      <point x="283" y="212" type="line"/>
      <point x="252" y="297" type="line"/>
      <point x="54" y="297" type="line"/>
      <point x="23" y="212" type="line"/>
    </contour>
    <contour>
      <point x="153" y="573" type="line"/>
      <point x="95" y="412" type="line"/>
      <point x="211" y="412" type="line"/>
    </contour>
  </outline>
</glyph>
<glyph name="N" format="1">
  <advance width="590"/>
  <unicode hex="004E"/>
  <outline>
    <contour>
      <point x="-92" y="212" type="line"/>
      <point x="-92" y="712" type="line"/>
      <point x="78" y="712" type="line"/>
      <point x="268" y="395" type="line"/>
      <point x="268" y="712" type="line"/>
      <point x="408" y="712" type="line"/>
      <point x="408" y="212" type="line"/>
      <point x="238" y="212" type="line"/>
      <point x="48" y="529" type="line"/>
      <point x="48" y="212" type="line"/>
    </contour>
  </outline>
</glyph>
<glyph name="O" format="1">
  <advance width="610"/>
  <unicode hex="004F"/>
  <outline>
    <contour>
      <point x="-107" y="462" type="curve" smooth="yes"/>
      <point x="-107" y="611"/>
      <point x="-7" y="732"/>
      <point x="168" y="732" type="curve" smooth="yes"/>
      <point x="343" y="732"/>
      <point x="443" y="611"/>
      <point x="443" y="462" type="curve" smooth="yes"/>
      <point x="443" y="313"/>
      <point x="343" y="192"/>
      <point x="168" y="192" type="curve" smooth="yes"/>
      <point x="-7" y="192"/>
      <point x="-107" y="313"/>
    </contour>
    <contour>
      <point x="38" y="462" type="curve" smooth="yes"/>
      <point x="38" y="369"/>
      <point x="106" y="317"/>
      <point x="168" y="317" type="curve" smooth="yes"/>
      <point x="230" y="317"/>
      <point x="298" y="369"/>
      <point x="298" y="462" type="curve" smooth="yes"/>
      <point x="298" y="555"/>
      <point x="230" y="607"/>
      <point x="168" y="607" type="curve" smooth="yes"/>
      <point x="106" y="607"/>
      <point x="38" y="555"/>
    </contour>
  </outline>
</glyph>
<glyph name="P" format="1">
  <advance width="487"/>
  <unicode hex="0050"/>
  <outline>
    <contour>
      <point x="-92" y="212" type="line"/>
      <point x="-92" y="712" type="line"/>
      <point x="-19" y="712"/>
      <point x="55" y="712"/>
      <point x="128" y="712" type="curve" smooth="yes"/>
      <point x="245" y="712"/>
      <point x="330" y="637"/>
      <point x="330" y="530" type="curve" smooth="yes"/>
      <point x="330" y="413"/>
      <point x="245" y="347"/>
      <point x="128" y="347" type="curve" smooth="yes"/>
      <point x="48" y="347" type="line"/>
      <point x="48" y="212" type="line"/>
    </contour>
    <contour>
      <point x="118" y="597" type="curve" smooth="yes"/>
      <point x="48" y="597" type="line"/>
      <point x="48" y="462" type="line"/>
      <point x="118" y="462" type="line" smooth="yes"/>
      <point x="156" y="462"/>
      <point x="185" y="482"/>
      <point x="185" y="530" type="curve" smooth="yes"/>
      <point x="185" y="578"/>
      <point x="156" y="597"/>
    </contour>
  </outline>
</glyph>
<glyph name="R" format="1">
  <advance width="515"/>
  <unicode hex="0052"/>
  <outline>
    <contour>
      <point x="-92" y="212" type="line"/>
      <point x="-92" y="712" type="line"/>
      <point x="-19" y="712"/>
      <point x="55" y="712"/>
      <point x="128" y="712" type="curve" smooth="yes"/>
      <point x="245" y="712"/>
      <point x="330" y="667"/>
      <point x="330" y="540" type="curve" smooth="yes"/>
      <point x="330" y="461"/>
      <point x="283" y="420"/>
      <point x="211" y="405" type="curve"/>
      <point x="358" y="212" type="line"/>
      <point x="198" y="212" type="line"/>
      <point x="48" y="402" type="line"/>
      <point x="48" y="212" type="line"/>
    </contour>
    <contour>
      <point x="115" y="597" type="curve" smooth="yes"/>
      <point x="48" y="597" type="line"/>
      <point x="48" y="482" type="line"/>
      <point x="115" y="482" type="line" smooth="yes"/>
      <point x="153" y="482"/>
      <point x="185" y="492"/>
      <point x="185" y="540" type="curve" smooth="yes"/>
      <point x="185" y="588"/>
      <point x="153" y="597"/>
    </contour>
  </outline>
</glyph>
<glyph name="T" format="1">
  <advance width="480"/>
  <unicode hex="0054"/>
  <outline>
    <contour>
      <point x="-117" y="592" type="line"/>
      <point x="-117" y="712" type="line"/>
      <point x="323" y="712" type="line"/>
      <point x="323" y="592" type="line"/>
      <point x="173" y="592" type="line"/>
      <point x="173" y="212" type="line"/>
      <point x="33" y="212" type="line"/>
      <point x="33" y="592" type="line"/>
    </contour>
  </outline>
</glyph>
<glyph name="V" format="1">
  <advance width="580"/>
  <unicode hex="0056"/>
  <outline>
    <contour>
      <point x="433" y="712" type="line"/>
      <point x="233" y="212" type="line"/>
      <point x="73" y="212" type="line"/>
      <point x="-127" y="712" type="line"/>
      <point x="23" y="712" type="line"/>
      <point x="153" y="351" type="line"/>
      <point x="283" y="712" type="line"/>
    </contour>
  </outline>
</glyph>
<glyph name="W" format="1">
  <advance width="880"/>
  <unicode hex="0057"/>
  <outline>
    <contour>
      <point x="723" y="712" type="line"/>
      <point x="533" y="212" type="line"/>
      <point x="373" y="212" type="line"/>
      <point x="305" y="407" type="line"/>
      <point x="233" y="212" type="line"/>
      <point x="73" y="212" type="line"/>
      <point x="-117" y="712" type="line"/>
      <point x="33" y="712" type="line"/>
      <point x="157" y="347" type="line"/>
      <point x="244" y="565" type="line"/>
      <point x="183" y="712" type="line"/>
      <point x="343" y="712" type="line"/>
      <point x="455" y="364" type="line"/>
      <point x="573" y="712" type="line"/>
    </contour>
  </outline>
</glyph>
<glyph name="c" format="1">
  <advance width="404"/>
  <unicode hex="0063"/>
  <outline>
    <contour>
      <point x="-102" y="404" type="curve" smooth="yes"/>
      <point x="-102" y="531"/>
      <point x="-7" y="607"/>
      <point x="110" y="607" type="curve" smooth="yes"/>
      <point x="148" y="607"/>
      <point x="196" y="596"/>
      <point x="222" y="572" type="curve"/>
      <point x="182" y="469" type="line"/>
      <point x="170" y="484"/>
      <point x="143" y="497"/>
      <point x="120" y="497" type="curve" smooth="yes"/>
      <point x="62" y="497"/>
      <point x="33" y="452"/>
      <point x="33" y="404" type="curve" smooth="yes"/>
      <point x="33" y="356"/>
      <point x="62" y="312"/>
      <point x="120" y="312" type="curve" smooth="yes"/>
      <point x="143" y="312"/>
      <point x="170" y="326"/>
      <point x="182" y="340" type="curve"/>
      <point x="222" y="237" type="line"/>
      <point x="196" y="213"/>
      <point x="148" y="202"/>
      <point x="110" y="202" type="curve" smooth="yes"/>
      <point x="-7" y="202"/>
      <point x="-102" y="287"/>
    </contour>
  </outline>
</glyph>
<glyph name="e" format="1">
  <advance width="469"/>
  <unicode hex="0065"/>
  <outline>
    <contour>
      <point x="-97" y="404" type="curve" smooth="yes"/>
      <point x="-97" y="531"/>
      <point x="-12" y="607"/>
      <point x="105" y="607" type="curve" smooth="yes"/>
      <point x="222" y="607"/>
      <point x="297" y="531"/>
      <point x="297" y="424" type="curve"/>
      <point x="55" y="335" type="line"/>
      <point x="71" y="315"/>
      <point x="94" y="302"/>
      <point x="125" y="302" type="curve" smooth="yes"/>
      <point x="168" y="302"/>
      <point x="195" y="326"/>
      <point x="217" y="360" type="curve"/>
      <point x="277" y="267" type="line"/>
      <point x="241" y="223"/>
      <point x="183" y="202"/>
      <point x="115" y="202" type="curve" smooth="yes"/>
      <point x="-2" y="202"/>
      <point x="-97" y="277"/>
    </contour>
    <contour>
      <point x="181" y="478" type="line"/>
      <point x="166" y="498"/>
      <point x="142" y="511"/>
      <point x="108" y="511" type="curve" smooth="yes"/>
      <point x="53" y="511"/>
      <point x="31" y="465"/>
      <point x="28" y="420" type="curve"/>
    </contour>
  </outline>
</glyph>
<glyph name="g" format="1">
  <advance width="489"/>
  <unicode hex="0067"/>
  <outline>
    <contour>
      <point x="177" y="270" type="line"/>
      <point x="146" y="240"/>
      <point x="105" y="222"/>
      <point x="60" y="222" type="curve" smooth="yes"/>
      <point x="-47" y="222"/>
      <point x="-102" y="307"/>
      <point x="-102" y="414" type="curve" smooth="yes"/>
      <point x="-102" y="521"/>
      <point x="-47" y="607"/>
      <point x="60" y="607" type="curve" smooth="yes"/>
      <point x="105" y="607"/>
      <point x="146" y="591"/>
      <point x="177" y="562" type="curve"/>
      <point x="177" y="597" type="line"/>
      <point x="312" y="597" type="line"/>
      <point x="312" y="172" type="line" smooth="yes"/>
      <point x="312" y="75"/>
      <point x="217" y="20"/>
      <point x="130" y="20" type="curve" smooth="yes"/>
      <point x="53" y="20"/>
      <point x="-17" y="45"/>
      <point x="-77" y="82" type="curve"/>
      <point x="-37" y="182" type="line"/>
      <point x="13" y="144"/>
      <point x="72" y="130"/>
      <point x="110" y="130" type="curve" smooth="yes"/>
      <point x="158" y="130"/>
      <point x="177" y="144"/>
      <point x="177" y="202" type="curve" smooth="yes"/>
    </contour>
    <contour>
      <point x="177" y="470" type="line"/>
      <point x="158" y="491"/>
      <point x="129" y="502"/>
      <point x="100" y="502" type="curve" smooth="yes"/>
      <point x="52" y="502"/>
      <point x="33" y="462"/>
      <point x="33" y="414" type="curve" smooth="yes"/>
      <point x="33" y="366"/>
      <point x="52" y="327"/>
      <point x="100" y="327" type="curve" smooth="yes"/>
      <point x="129" y="327"/>
      <point x="158" y="338"/>
      <point x="177" y="359" type="curve"/>
    </contour>
  </outline>
</glyph>
<glyph name="h" format="1">
  <advance width="474"/>
  <unicode hex="0068"/>
  <outline>
    <contour>
      <point x="-97" y="212" type="line"/>
      <point x="-97" y="742" type="line"/>
      <point x="38" y="742" type="line"/>
      <point x="38" y="525" type="line"/>
      <point x="71" y="575"/>
      <point x="120" y="607"/>
      <point x="165" y="607" type="curve" smooth="yes"/>
      <point x="252" y="607"/>
      <point x="297" y="551"/>
      <point x="297" y="454" type="curve" smooth="yes"/>
      <point x="297" y="212" type="line"/>
      <point x="162" y="212" type="line"/>
      <point x="162" y="424" type="line" smooth="yes"/>
      <point x="162" y="482"/>
      <point x="143" y="502"/>
      <point x="115" y="502" type="curve" smooth="yes"/>
      <point x="86" y="502"/>
      <point x="57" y="480"/>
      <point x="38" y="452" type="curve"/>
      <point x="38" y="212" type="line"/>
    </contour>
  </outline>
</glyph>
<glyph name="i" format="1">
  <advance width="271"/>
  <unicode hex="0069"/>
  <outline>
    <contour>
      <point x="-69" y="212" type="line"/>
      <point x="-69" y="597" type="line"/>
      <point x="66" y="597" type="line"/>
      <point x="66" y="212" type="line"/>
    </contour>
    <contour>
      <point x="-2" y="654" type="line"/>
      <point x="-97" y="749" type="line"/>
      <point x="-2" y="845" type="line"/>
      <point x="94" y="749" type="line"/>
    </contour>
  </outline>
</glyph>
<glyph name="m" format="1">
  <advance width="693"/>
  <unicode hex="006D"/>
  <outline>
    <contour>
      <point x="-97" y="212" type="line"/>
      <point x="-97" y="597" type="line"/>
      <point x="38" y="597" type="line"/>
      <point x="38" y="531" type="line"/>
      <point x="68" y="578"/>
      <point x="112" y="607"/>
      <point x="155" y="607" type="curve" smooth="yes"/>
      <point x="215" y="607"/>
      <point x="250" y="580"/>
      <point x="266" y="532" type="curve"/>
      <point x="302" y="578"/>
      <point x="352" y="607"/>
      <point x="394" y="607" type="curve" smooth="yes"/>
      <point x="481" y="607"/>
      <point x="516" y="551"/>
      <point x="516" y="454" type="curve" smooth="yes"/>
      <point x="516" y="212" type="line"/>
      <point x="381" y="212" type="line"/>
      <point x="381" y="424" type="line" smooth="yes"/>
      <point x="381" y="482"/>
      <point x="372" y="502"/>
      <point x="344" y="502" type="curve" smooth="yes"/>
      <point x="317" y="502"/>
      <point x="293" y="483"/>
      <point x="277" y="458" type="curve"/>
      <point x="277" y="376"/>
      <point x="277" y="294"/>
      <point x="277" y="212" type="curve"/>
      <point x="142" y="212" type="line"/>
      <point x="142" y="424" type="line" smooth="yes"/>
      <point x="142" y="482"/>
      <point x="133" y="502"/>
      <point x="105" y="502" type="curve" smooth="yes"/>
      <point x="78" y="502"/>
      <point x="54" y="483"/>
      <point x="38" y="458" type="curve"/>
      <point x="38" y="212" type="line"/>
    </contour>
  </outline>
</glyph>
<glyph name="o" format="1">
  <advance width="474"/>
  <unicode hex="006F"/>
  <outline>
    <contour>
      <point x="28" y="404" type="curve" smooth="yes"/>
      <point x="28" y="356"/>
      <point x="52" y="317"/>
      <point x="100" y="317" type="curve" smooth="yes"/>
      <point x="148" y="317"/>
      <point x="172" y="356"/>
      <point x="172" y="404" type="curve" smooth="yes"/>
      <point x="172" y="452"/>
      <point x="148" y="492"/>
      <point x="100" y="492" type="curve" smooth="yes"/>
      <point x="52" y="492"/>
      <point x="28" y="452"/>
    </contour>
    <contour>
      <point x="-102" y="404" type="curve" smooth="yes"/>
      <point x="-102" y="531"/>
      <point x="-17" y="607"/>
      <point x="100" y="607" type="curve" smooth="yes"/>
      <point x="217" y="607"/>
      <point x="302" y="531"/>
      <point x="302" y="404" type="curve" smooth="yes"/>
      <point x="302" y="277"/>
      <point x="217" y="202"/>
      <point x="100" y="202" type="curve" smooth="yes"/>
      <point x="-17" y="202"/>
      <point x="-102" y="287"/>
    </contour>
  </outline>
</glyph>
<glyph name="u" format="1">
  <advance width="474"/>
  <unicode hex="0075"/>
  <outline>
    <contour>
      <point x="297" y="597" type="line"/>
      <point x="297" y="212" type="line"/>
      <point x="162" y="212" type="line"/>
      <point x="162" y="284" type="line"/>
      <point x="129" y="234"/>
      <point x="80" y="202"/>
      <point x="35" y="202" type="curve" smooth="yes"/>
      <point x="-52" y="202"/>
      <point x="-97" y="258"/>
      <point x="-97" y="355" type="curve" smooth="yes"/>
      <point x="-97" y="597" type="line"/>
      <point x="38" y="597" type="line"/>
      <point x="38" y="385" type="line" smooth="yes"/>
      <point x="38" y="327"/>
      <point x="57" y="307"/>
      <point x="85" y="307" type="curve" smooth="yes"/>
      <point x="114" y="307"/>
      <point x="143" y="329"/>
      <point x="162" y="357" type="curve"/>
      <point x="162" y="597" type="line"/>
    </contour>
  </outline>
</glyph>
<glyph name="w" format="1">
  <advance width="695"/>
  <unicode hex="0077"/>
  <outline>
    <contour>
      <point x="-2" y="212" type="line"/>
      <point x="-122" y="597" type="line"/>
      <point x="23" y="597" type="line"/>
      <point x="76" y="340" type="line"/>
      <point x="153" y="597" type="line"/>
      <point x="268" y="597" type="line"/>
      <point x="351" y="340" type="line"/>
      <point x="398" y="597" type="line"/>
      <point x="543" y="597" type="line"/>
      <point x="433" y="212" type="line"/>
      <point x="288" y="212" type="line"/>
      <point x="212" y="419" type="line"/>
      <point x="143" y="212" type="line"/>
    </contour>
  </outline>
</glyph>
<glyph name="y" format="1">
  <advance width="470"/>
  <unicode hex="0079"/>
  <outline>
    <contour>
      <point x="43" y="243" type="line"/>
      <point x="-127" y="597" type="line"/>
      <point x="28" y="597" type="line"/>
      <point x="102" y="394" type="line"/>
      <point x="183" y="597" type="line"/>
      <point x="323" y="597" type="line"/>
      <point x="103" y="67" type="line"/>
      <point x="-27" y="67" type="line"/>
    </contour>
  </outline>
</glyph>
<glyph name="z" format="1">
  <advance width="425"/>
  <unicode hex="007A"/>
  <outline>
    <contour>
      <point x="-82" y="467" type="line"/>
      <point x="-82" y="597" type="line"/>
      <point x="38" y="597"/>
      <point x="158" y="597"/>
      <point x="278" y="597" type="curve"/>
      <point x="99" y="342" type="line"/>
      <point x="253" y="342" type="line"/>
      <point x="253" y="212" type="line"/>
      <point x="126" y="212"/>
      <point x="0" y="212"/>
      <point x="-127" y="212" type="curve"/>
      <point x="52" y="467" type="line"/>
    </contour>
  </outline>
</glyph>
<glyph name="quotedblright" format="1">
  <advance width="430"/>
  <unicode hex="201D"/>
  <outline>
    <contour>
      <point x="118" y="452" type="line"/>
      <point x="118" y="712" type="line"/>
      <point x="248" y="712" type="line"/>
      <point x="248" y="572" type="line"/>
    </contour>
    <contour>
      <point x="-92" y="452" type="line"/>
      <point x="-92" y="712" type="line"/>
      <point x="38" y="712" type="line"/>
      <point x="38" y="572" type="line"/>
    </contour>
  </outline>
</glyph>
